<?xml version="1.0" standalone="no"?>
<!DOCTYPE svg PUBLIC "-//W3C//DTD SVG 20010904//EN"
 "http://www.w3.org/TR/2001/REC-SVG-20010904/DTD/svg10.dtd">
<svg version="1.0" xmlns="http://www.w3.org/2000/svg"
 width="288.000000pt" height="288.000000pt" viewBox="0 0 288.000000 288.000000"
 preserveAspectRatio="xMidYMid meet">
<metadata>
Created by potrace 1.14, written by Peter Selinger 2001-2017
</metadata>
<g transform="translate(0.000000,288.000000) scale(0.100000,-0.100000)"
fill="#000000" stroke="none">
<path d="M2258 2170 c-113 -20 -261 -78 -343 -133 l-38 -26 34 -14 c53 -22
100 -35 151 -42 58 -8 72 -24 65 -72 -23 -137 -387 -472 -753 -690 -141 -85
-310 -167 -448 -218 -82 -30 -107 -35 -145 -30 -77 10 -76 9 -52 128 27 138
27 157 -1 157 -29 0 -172 -148 -237 -245 -54 -81 -91 -169 -91 -216 0 -19 9
-39 26 -56 25 -25 27 -25 142 -20 107 4 126 8 222 45 181 70 231 92 383 168
388 194 696 420 1033 758 171 172 184 187 228 277 60 120 67 165 33 204 -22
26 -31 29 -93 31 -38 2 -90 -1 -116 -6z"/>
<path d="M1290 2045 c-30 -8 -93 -34 -140 -57 -151 -73 -266 -211 -320 -383
-25 -81 -31 -247 -11 -330 13 -55 70 -176 100 -214 l19 -25 173 86 c274 136
535 318 761 529 126 117 125 102 14 214 -74 75 -161 130 -262 166 -79 28 -256
35 -334 14z"/>
<path d="M1643 1117 c-227 -155 -413 -285 -413 -288 0 -13 158 -49 217 -49
144 0 312 71 428 182 78 74 126 146 161 243 25 68 43 195 28 195 -5 -1 -195
-128 -421 -283z"/>
</g>
</svg>
